<svg xmlns="http://www.w3.org/2000/svg" viewBox="0 0 64 64">
  <rect width="64" height="64" rx="14" fill="#0b141c"/>
  <path fill="#7bdb80" d="M51.8 29.2c2.3 1 3.7 2.2 3.7 3.8s-1.4 2.8-3.7 3.8L37.6 43l-2.8 11.6c-.3 1.1-1.7 1.5-2.5.7l-5.7-6.6-8.9 3.8c-1.4.6-2.9-.6-2.6-2.1l2.4-10.3L8.2 36.8c-2.3-1-3.7-2.2-3.7-3.8s1.4-2.8 3.7-3.8l9.3-3.3-2.4-10.3c-.3-1.5 1.2-2.7 2.6-2.1l8.9 3.8 5.7-6.6c.8-.8 2.2-.4 2.5.7L37.6 23l14.2 6.2Z"/>
  <path fill="#0b141c" d="M50.1 33 34 30.4 29.7 16l-4.9 10.7L10.2 33l14.6 6.3L29.7 50 34 35.6 50.1 33Z" opacity=".28"/>
</svg>
